<svg xmlns="http://www.w3.org/2000/svg" version="1.1" xmlns:xlink="http://www.w3.org/1999/xlink" xmlns:svgjs="http://svgjs.dev/svgjs" width="1000" height="1000" viewBox="0 0 1000 1000"><rect width="1000" height="1000" fill="#ffffff"></rect><g transform="matrix(0.7,0,0,0.7,150,218.95000000000005)"><svg viewBox="0 0 448 360" data-background-color="#ffffff" preserveAspectRatio="xMidYMid meet" height="803" width="1000" xmlns="http://www.w3.org/2000/svg" xmlns:xlink="http://www.w3.org/1999/xlink"><g id="tight-bounds" transform="matrix(1,0,0,1,0,0)"><svg viewBox="0 0 448 360" height="360" width="448"><g><svg></svg></g><g><svg viewBox="0 0 448 360" height="360" width="448"><g><path xmlns="http://www.w3.org/2000/svg" d="M193.855 44.683c1.378 0 2.494 1.116 2.495 2.494 0 1.378-1.116 2.494-2.495 2.495h-23.846l-17.167 17.167c-0.973 0.973-2.551 0.973-3.53 0-0.973-0.973-0.973-2.551 0-3.529l13.644-13.645h-40.378c-11.518 0-19.151 2.688-23.815 8.113-4.739 5.519-6.66 14.056-6.66 25.63 0 0.069 0 0.137-0.006 0.206l0.212 36.692 14.692-14.692c0.973-0.973 2.551-0.973 3.53 0 0.973 0.973 0.973 2.551 0 3.53l-18.178 18.178c0.206 35.832 0.193 71.358-0.013 107.19 25.486 25.2 50.617 50.312 75.811 75.791h25.38c1.378 0 2.494 1.116 2.495 2.495 0 1.378-1.116 2.494-2.495 2.494h-20.448l25.942 26.241 0.006-0.006c8.188 8.188 15.577 12.859 22.824 13.413 7.146 0.543 14.442-2.956 22.586-11.093l28.555-28.555h-20.722c-1.378 0-2.494-1.116-2.495-2.494 0-1.378 1.116-2.494 2.495-2.495h25.711l16.625-16.625c0.973-0.973 2.551-0.973 3.529 0 0.973 0.973 0.973 2.551 0 3.53l-13.101 13.102h40.377c11.518 0 19.151-2.688 23.815-8.113 4.739-5.519 6.66-14.056 6.66-25.63h0.013l-0.212-36.898-16.014 16.014c-0.973 0.973-2.551 0.973-3.53 0-0.973-0.973-0.973-2.551 0-3.53l19.5-19.5c-0.206-35.832-0.193-71.358 0.013-107.19-25.486-25.2-50.617-50.312-75.811-75.791h-26.147c-1.378 0-2.494-1.116-2.495-2.495 0-1.378 1.116-2.494 2.495-2.494h21.215l-25.824-26.123c-0.044-0.037-0.081-0.075-0.124-0.112-8.188-8.188-15.577-12.859-22.824-13.413-7.146-0.543-14.442 2.956-22.586 11.093l-28.555 28.555h18.858zM122.578 44.683h45.367l32.078-32.078c9.248-9.248 17.81-13.195 26.484-12.534 8.568 0.649 16.956 5.824 25.985 14.854 0.05 0.05 0.094 0.094 0.137 0.143l29.278 29.615h43.508c13.071 0 21.919 3.268 27.594 9.871 5.6 6.517 7.864 16.101 7.864 28.867 0 0.081-0.006 0.156-0.012 0.23l-0.225 39.742 28.43 28.112 0.006-0.006c9.03 9.03 14.206 17.411 14.854 25.985 0.661 8.674-3.293 17.236-12.534 26.484l-30.768 30.768 0.237 41.843h0.012c0 12.765-2.27 22.35-7.864 28.867-5.675 6.604-14.524 9.872-27.594 9.871h-45.366l-32.078 32.078c-9.248 9.248-17.81 13.195-26.484 12.534-8.568-0.649-16.956-5.824-25.985-14.854l0.006-0.006-29.421-29.758h-43.509c-13.071 0-21.919-3.268-27.594-9.872-5.6-6.517-7.864-16.101-7.863-28.866h0.012l0.231-39.972-28.293-27.969c-0.05-0.044-0.1-0.087-0.143-0.137-9.03-9.03-14.206-17.411-14.854-25.985-0.661-8.674 3.293-17.236 12.534-26.484l30.768-30.768-0.237-41.607c-0.006-0.075-0.012-0.156-0.012-0.23 0-12.765 2.27-22.35 7.864-28.867 5.675-6.604 14.524-9.872 27.594-9.871zM87.682 179.997l-0.274-47.724-27.276 27.276c-8.138 8.138-11.636 15.44-11.094 22.587 0.549 7.246 5.226 14.642 13.413 22.823 0.037 0.037 0.081 0.081 0.113 0.125l24.837 24.551 0.281-49.644zM92.303 241.483l-0.2 35.09h0.013c0 11.58 1.921 20.117 6.66 25.63 4.664 5.432 12.297 8.113 23.815 8.113h38.576l-33.55-33.936-35.308-34.903zM325.415 49.672h-38.575l33.549 33.936 35.308 34.902 0.2-34.884c-0.006-0.069-0.006-0.137-0.007-0.205 0-11.58-1.921-20.117-6.66-25.63-4.664-5.432-12.297-8.113-23.815-8.113zM360.599 130.352l-0.281 49.645 0.274 47.724 27.276-27.276c8.138-8.138 11.636-15.44 11.094-22.587-0.549-7.252-5.226-14.642-13.413-22.824l0.006-0.006-24.956-24.669z" fill="#000000" fill-rule="nonzero" stroke="none" stroke-width="1" stroke-linecap="butt" stroke-linejoin="miter" stroke-miterlimit="10" stroke-dasharray="" stroke-dashoffset="0" font-family="none" font-weight="none" font-size="none" text-anchor="none" style="mix-blend-mode: normal" data-fill-palette-color="tertiary"></path></g><g transform="matrix(1,0,0,1,157.92347857014946,90)"><svg viewBox="0 0 132.1530428597011 180" height="180" width="132.1530428597011"><g><svg viewBox="0 0 225.11999999999998 306.6263108524813" height="180" width="132.1530428597011"><g><rect width="225.11999999999998" height="11.706160792906772" x="0" y="134.46839998143136" fill="#000000" opacity="1" stroke-width="0" stroke="transparent" fill-opacity="1" class="rect-o-0" data-fill-palette-color="primary" rx="1%" id="o-0" data-palette-color="#221c1f"></rect></g><g transform="matrix(1,0,0,1,0.5599999999999881,176.8189607557695)"><svg viewBox="0 0 224 129.80735009671182" height="129.80735009671182" width="224"><g id="textblocktransform"><svg viewBox="0 0 224 129.80735009671182" height="129.80735009671182" width="224" id="textblock"><g><svg viewBox="0 0 224 129.80735009671182" height="129.80735009671182" width="224"><g transform="matrix(1,0,0,1,0,0)"><svg width="224" viewBox="1.559999942779541 -36.060001373291016 63.1099967956543 36.56999969482422" height="129.80735009671182" data-palette-color="#221c1f"><g class="undefined-text-0" data-fill-palette-color="primary" id="text-0"><path d="M18.19 0.51L18.19 0.51Q12.94 0.51 9.22-1.72 5.49-3.96 3.53-7.97 1.56-11.99 1.56-17.31L1.56-17.31 1.56-18.21Q1.56-23.41 3.52-27.43 5.47-31.45 9.11-33.75 12.74-36.06 17.8-36.06L17.8-36.06Q21.34-36.06 24.37-35.01 27.39-33.96 29.64-32.06L29.64-32.06 29.64-23.85 24.95-23.85 24.32-29.35Q23.51-29.93 22.53-30.35 21.56-30.76 20.4-30.98 19.24-31.2 17.87-31.2L17.87-31.2Q14.67-31.2 12.39-29.59 10.11-27.98 8.91-25.07 7.71-22.17 7.71-18.26L7.71-18.26 7.71-17.31Q7.71-13.26 8.98-10.34 10.25-7.42 12.63-5.86 15.01-4.3 18.33-4.3L18.33-4.3Q19.95-4.3 21.52-4.68 23.1-5.05 24.29-5.66L24.29-5.66 24.95-10.64 29.59-10.64 29.59-2.49Q27.54-1.15 24.57-0.32 21.61 0.51 18.19 0.51ZM49.09 0.51L49.09 0.51Q45.55 0.51 42.7-0.82 39.84-2.15 37.8-4.57 35.76-6.98 34.67-10.28 33.57-13.57 33.57-17.5L33.57-17.5 33.57-18.04Q33.57-21.95 34.67-25.24 35.76-28.54 37.8-30.97 39.84-33.4 42.7-34.73 45.55-36.06 49.07-36.06L49.07-36.06Q52.71-36.06 55.59-34.73 58.47-33.4 60.5-30.97 62.52-28.54 63.6-25.24 64.67-21.95 64.67-18.04L64.67-18.04 64.67-17.5Q64.67-13.57 63.6-10.28 62.52-6.98 60.5-4.57 58.47-2.15 55.59-0.82 52.71 0.51 49.09 0.51ZM49.09-4.37L49.09-4.37Q52.32-4.37 54.4-6.02 56.49-7.67 57.5-10.62 58.52-13.57 58.52-17.5L58.52-17.5 58.52-18.09Q58.52-21.97 57.49-24.9 56.47-27.83 54.38-29.49 52.29-31.15 49.07-31.15L49.07-31.15Q45.99-31.15 43.92-29.49 41.84-27.83 40.79-24.9 39.74-21.97 39.74-18.09L39.74-18.09 39.74-17.5Q39.74-13.6 40.79-10.63 41.84-7.67 43.93-6.02 46.02-4.37 49.09-4.37Z" fill="#000000" data-fill-palette-color="primary"></path></g></svg></g></svg></g></svg></g></svg></g><g transform="matrix(1,0,0,1,60.64799999999998,0)"><svg viewBox="0 0 103.82400000000001 103.82400000000001" height="103.82400000000001" width="103.82400000000001"><g><svg xmlns="http://www.w3.org/2000/svg" xmlns:xlink="http://www.w3.org/1999/xlink" version="1.1" x="0" y="0" viewBox="12 12 76 76" style="enable-background:new 0 0 100 100;" xml:space="preserve" height="103.82400000000001" width="103.82400000000001" class="icon-icon-0" data-fill-palette-color="accent" id="icon-0"><path d="M88 50c0-21-17-38-38-38S12 29 12 50s17 38 38 38c7.5 0 14.5-2.2 20.4-6l2.2 3.2c1.1 1.7 3.1 2.7 5.1 2.7 1.1 0 2.3-0.3 3.2-0.9 1.4-0.9 2.4-2.3 2.8-3.9 0.4-1.6 0-3.3-0.9-4.7l-3-4.5c2.1-0.4 3.7-1.9 4.3-4 0.3-1.1 0.3-2.3 0-3.3C86.6 61.6 88 56 88 50zM78.8 32H67.5c-1.4-5-3.4-9.7-5.9-14C68.8 20.6 74.8 25.6 78.8 32zM53.4 55.4l2.2 8.6H35.7c-0.9-3.9-1.3-7.9-1.5-12h19.3C53.1 53.1 53.1 54.2 53.4 55.4zM34.2 48c0.1-4.1 0.7-8.1 1.6-12h28.5c0.9 3.9 1.3 7.9 1.5 12H34.2zM50 16c2 0 3.9 0.2 5.8 0.5 3.3 4.5 5.8 9.8 7.5 15.5H36.9c1.8-5.8 4.4-11 7.9-15.6C46.5 16.1 48.2 16 50 16zM38.9 17.9c-2.6 4.3-4.7 9.1-6.2 14.1H21.2C25.3 25.5 31.5 20.4 38.9 17.9zM19 36h12.7c-0.8 3.9-1.4 7.9-1.5 12H16.1C16.3 43.7 17.4 39.7 19 36zM16.1 52h14.2c0.1 4.1 0.6 8.1 1.4 12H19C17.4 60.3 16.3 56.3 16.1 52zM21.2 68h11.4c1.4 5 3.4 9.7 5.9 14C31.2 79.4 25.2 74.4 21.2 68zM55.2 83.6C53.5 83.9 51.8 84 50 84c-2 0-3.9-0.2-5.8-0.5-3.3-4.5-5.8-9.8-7.5-15.5h19.8l2.5 9.8C57.9 79.8 56.6 81.8 55.2 83.6zM61.1 82.1C61.1 82.1 61.1 82.1 61.1 82.1 61.1 82.1 61.1 82.1 61.1 82.1 61.1 82.1 61.1 82.1 61.1 82.1zM78.7 70.1l-6 0.3 1.9 3 0 0 4.8 7.3c0.7 1 0.4 2.4-0.7 3-0.2 0.1-0.3 0.2-0.5 0.2 0 0-0.1 0-0.1 0-0.1 0-0.3 0.1-0.4 0.1 0 0 0 0-0.1 0 0 0 0 0 0 0-0.2 0-0.3 0-0.5-0.1 0 0-0.1 0-0.1 0-0.1 0-0.2-0.1-0.3-0.1 0 0-0.1 0-0.1-0.1-0.1-0.1-0.2-0.1-0.3-0.2 0 0-0.1-0.1-0.1-0.1-0.1-0.1-0.2-0.2-0.3-0.4l-2.2-3.3 0 0-4.7-7-2.3 5.8c-0.1 0.2-0.2 0.4-0.3 0.5 0 0-0.1 0.1-0.1 0.1-0.1 0.1-0.2 0.2-0.3 0.2-0.1 0-0.1 0.1-0.2 0.1-0.1 0-0.2 0.1-0.3 0.1-0.1 0-0.1 0-0.2 0-0.1 0-0.2 0-0.2 0 0 0 0 0-0.1 0-0.1 0-0.2 0-0.3 0-0.1 0-0.2 0-0.2 0-0.1 0-0.2-0.1-0.3-0.2 0 0-0.1 0-0.1-0.1-0.1-0.1-0.3-0.2-0.4-0.4 0 0 0 0 0 0-0.1-0.2-0.2-0.4-0.3-0.6L61.7 72l0 0-0.4-1.4-4.1-16.2c0-0.2-0.1-0.3 0-0.5 0 0 0-0.1 0-0.1 0-0.1 0-0.2 0.1-0.3 0 0 0-0.1 0-0.1 0.1-0.1 0.1-0.2 0.2-0.4 0 0 0 0 0 0 0.1-0.1 0.2-0.2 0.3-0.3 0 0 0.1 0 0.1-0.1 0.1-0.1 0.2-0.1 0.3-0.1 0 0 0.1 0 0.1 0 0.1 0 0.3-0.1 0.4-0.1 0 0 0 0 0.1 0 0 0 0 0 0 0 0.1 0 0.2 0 0.3 0 0.1 0 0.1 0 0.2 0 0.2 0.1 0.3 0.1 0.5 0.2l5.6 4 0 0 3.7 2.7 0 0 6.6 4.7 0 0 3.9 2.8C81 67.8 80.4 70 78.7 70.1zM81.4 63.1l-11.7-8.4c0.1-0.9 0.1-1.8 0.1-2.7h14.2C83.7 55.9 82.8 59.7 81.4 63.1zM69.8 48c-0.1-4.1-0.6-8.1-1.4-12H81c1.7 3.7 2.7 7.7 3 12H69.8z" fill="#000000" data-fill-palette-color="accent"></path></svg></g></svg></g><g></g></svg></g></svg></g></svg></g><defs></defs></svg><rect width="448" height="360" fill="none" stroke="none" visibility="hidden"></rect></g></svg></g></svg>